<svg width="31" height="26" viewBox="0 0 31 26" fill="none" xmlns="http://www.w3.org/2000/svg">
<g clip-path="url(#clip0_32_142)">
<path d="M30.0885 9.96836L28.9104 8.81969C28.6743 8.5895 28.3604 8.46275 28.0266 8.46275C27.6927 8.46275 27.3786 8.5895 27.1427 8.81969L26.8482 9.10691L25.8003 8.08519C26.0397 6.89386 25.6622 5.65277 24.7862 4.79812L22.4295 2.50027C20.8229 0.887148 18.5781 0 16.2865 0C13.9479 0 11.75 0.887148 10.099 2.49895L9.69271 2.89707L14.6927 5.33711V6.0384C14.6927 7.0007 15.0931 7.9427 15.7911 8.62367L18.3516 11.1191C19.0516 11.8021 19.9865 12.1784 20.9839 12.1784C21.2317 12.1784 21.4793 12.1548 21.7224 12.1079L22.7703 13.1296L22.4758 13.4168C21.9885 13.8919 21.9885 14.665 22.4757 15.1403L23.6539 16.2889C23.89 16.5191 24.2039 16.646 24.5377 16.646C24.8716 16.646 25.1856 16.5191 25.4216 16.2889L30.1367 11.6932C30.6198 11.2125 30.6198 10.4406 30.0885 9.96836ZM14.6094 9.77031C14.4091 9.57501 14.2345 9.35832 14.0693 9.13605L1.59531 19.7595C0.130727 21.1875 0.128644 23.5031 1.59338 24.929C2.32916 25.6445 3.28958 26 4.20312 26C5.11666 26 6.12187 25.643 6.85469 24.929L17.7453 12.772C17.5296 12.6166 17.3191 12.4526 17.126 12.2644L14.6094 9.77031Z" fill="#7EE2A8"/>
</g>
<defs>
<clipPath id="clip0_32_142">
<rect width="30" height="26" fill="white" transform="translate(0.5)"/>
</clipPath>
</defs>
</svg>
